<?xml version="1.0" standalone="no"?>
<!DOCTYPE svg PUBLIC "-//W3C//DTD SVG 20010904//EN"
 "http://www.w3.org/TR/2001/REC-SVG-20010904/DTD/svg10.dtd">
<svg version="1.0" xmlns="http://www.w3.org/2000/svg"
 width="32.000000pt" height="32.000000pt" viewBox="0 0 32.000000 32.000000"
 preserveAspectRatio="xMidYMid meet">

<g transform="translate(0.000000,32.000000) scale(0.100000,-0.100000)"
fill="#000000" stroke="none">
<path d="M90 298 c-33 -17 -51 -35 -67 -68 -29 -56 -29 -84 -1 -140 25 -48 89
-90 138 -90 49 0 113 42 138 90 28 56 28 84 0 140 -25 48 -89 90 -138 90 -14
0 -46 -10 -70 -22z m5 -118 l12 -35 16 38 c25 57 42 48 42 -23 0 -50 -3 -60
-17 -60 -14 0 -16 7 -12 38 l5 37 -17 -35 -16 -35 -14 30 -13 30 -1 -32 c0
-20 -5 -33 -12 -33 -9 0 -13 19 -13 60 0 70 20 80 40 20z m170 -20 l0 -55 -35
-3 -35 -3 0 61 0 61 35 -3 35 -3 0 -55z"/>
<path d="M220 160 c0 -34 3 -41 18 -38 12 2 17 13 17 38 0 25 -5 36 -17 38
-15 3 -18 -4 -18 -38z"/>
</g>
</svg>
